<mxfile host="Electron" modified="2024-10-31T16:18:58.833Z" agent="Mozilla/5.0 (X11; Linux x86_64) AppleWebKit/537.36 (KHTML, like Gecko) draw.io/24.4.8 Chrome/124.0.6367.207 Electron/30.0.6 Safari/537.36" etag="vVDbaQEncOEvxb4Zpijb" version="24.4.8" type="device">
  <diagram name="Page-1" id="TPv4YiVZvs2msHgFxSqs">
    <mxGraphModel dx="2074" dy="1198" grid="1" gridSize="10" guides="1" tooltips="1" connect="1" arrows="1" fold="1" page="1" pageScale="1" pageWidth="850" pageHeight="1100" math="0" shadow="0">
      <root>
        <mxCell id="0" />
        <mxCell id="1" parent="0" />
        <mxCell id="vOJv6ga_SLZkR0OG2dL8-19" value="" style="strokeColor=#dddddd;shadow=1;strokeWidth=1;rounded=1;absoluteArcSize=1;arcSize=2;movable=1;resizable=1;rotatable=1;deletable=1;editable=1;locked=0;connectable=1;container=0;fillColor=#9933FF;" parent="1" vertex="1">
          <mxGeometry x="460" y="260" width="283" height="190" as="geometry" />
        </mxCell>
        <mxCell id="vOJv6ga_SLZkR0OG2dL8-57" value="" style="strokeColor=#dddddd;shadow=1;strokeWidth=1;rounded=1;absoluteArcSize=1;arcSize=2;movable=1;resizable=1;rotatable=1;deletable=1;editable=1;locked=0;connectable=1;container=0;fillColor=#9933FF;" parent="1" vertex="1">
          <mxGeometry x="157" y="260" width="283" height="190" as="geometry" />
        </mxCell>
        <mxCell id="vOJv6ga_SLZkR0OG2dL8-60" value="&lt;font color=&quot;#ffffff&quot;&gt;&lt;span style=&quot;text-wrap: nowrap;&quot;&gt;Node-1&lt;/span&gt;&lt;br style=&quot;forced-color-adjust: none; font-family: Helvetica; font-size: 12px; font-style: normal; font-variant-ligatures: normal; font-variant-caps: normal; letter-spacing: normal; orphans: 2; text-align: left; text-indent: 0px; text-transform: none; widows: 2; word-spacing: 0px; -webkit-text-stroke-width: 0px; white-space: nowrap; text-decoration-thickness: initial; text-decoration-style: initial; text-decoration-color: initial;&quot;&gt;&lt;span style=&quot;font-family: Helvetica; font-size: 12px; font-style: normal; font-variant-ligatures: normal; font-variant-caps: normal; letter-spacing: normal; orphans: 2; text-align: left; text-indent: 0px; text-transform: none; widows: 2; word-spacing: 0px; -webkit-text-stroke-width: 0px; white-space: nowrap; text-decoration-thickness: initial; text-decoration-style: initial; text-decoration-color: initial; float: none; display: inline !important;&quot;&gt;Compute Engine&lt;/span&gt;&lt;/font&gt;" style="text;whiteSpace=wrap;html=1;fontStyle=1" parent="1" vertex="1">
          <mxGeometry x="220" y="400" width="120" height="50" as="geometry" />
        </mxCell>
        <mxCell id="vOJv6ga_SLZkR0OG2dL8-65" value="" style="strokeColor=#dddddd;shadow=1;strokeWidth=1;rounded=1;absoluteArcSize=1;arcSize=2;movable=1;resizable=1;rotatable=1;deletable=1;editable=1;locked=0;connectable=1;container=0;fillColor=#9933FF;" parent="1" vertex="1">
          <mxGeometry x="765" y="260" width="283" height="190" as="geometry" />
        </mxCell>
        <mxCell id="vOJv6ga_SLZkR0OG2dL8-85" value="Upstream&lt;div&gt;Router&lt;/div&gt;" style="text;html=1;align=center;verticalAlign=middle;resizable=0;points=[];autosize=1;strokeColor=none;fillColor=none;fontColor=#FFFFFF;" parent="1" vertex="1">
          <mxGeometry x="638.46" y="110" width="80" height="40" as="geometry" />
        </mxCell>
        <mxCell id="vOJv6ga_SLZkR0OG2dL8-89" value="" style="sketch=0;points=[[0,0,0],[0.25,0,0],[0.5,0,0],[0.75,0,0],[1,0,0],[0,1,0],[0.25,1,0],[0.5,1,0],[0.75,1,0],[1,1,0],[0,0.25,0],[0,0.5,0],[0,0.75,0],[1,0.25,0],[1,0.5,0],[1,0.75,0]];outlineConnect=0;fontColor=#232F3E;fillColor=#ED7100;strokeColor=#ffffff;dashed=0;verticalLabelPosition=bottom;verticalAlign=top;align=center;html=1;fontSize=12;fontStyle=0;aspect=fixed;shape=mxgraph.aws4.resourceIcon;resIcon=mxgraph.aws4.compute;" parent="1" vertex="1">
          <mxGeometry x="170" y="404" width="38" height="38" as="geometry" />
        </mxCell>
        <mxCell id="vOJv6ga_SLZkR0OG2dL8-100" value="&lt;font color=&quot;#ffffff&quot;&gt;&lt;span style=&quot;text-wrap: nowrap;&quot;&gt;Node-2&lt;/span&gt;&lt;br style=&quot;forced-color-adjust: none; font-family: Helvetica; font-size: 12px; font-style: normal; font-variant-ligatures: normal; font-variant-caps: normal; letter-spacing: normal; orphans: 2; text-align: left; text-indent: 0px; text-transform: none; widows: 2; word-spacing: 0px; -webkit-text-stroke-width: 0px; white-space: nowrap; text-decoration-thickness: initial; text-decoration-style: initial; text-decoration-color: initial;&quot;&gt;&lt;span style=&quot;font-family: Helvetica; font-size: 12px; font-style: normal; font-variant-ligatures: normal; font-variant-caps: normal; letter-spacing: normal; orphans: 2; text-align: left; text-indent: 0px; text-transform: none; widows: 2; word-spacing: 0px; -webkit-text-stroke-width: 0px; white-space: nowrap; text-decoration-thickness: initial; text-decoration-style: initial; text-decoration-color: initial; float: none; display: inline !important;&quot;&gt;Compute Engine&lt;/span&gt;&lt;/font&gt;" style="text;whiteSpace=wrap;html=1;fontStyle=1" parent="1" vertex="1">
          <mxGeometry x="522" y="398" width="120" height="50" as="geometry" />
        </mxCell>
        <mxCell id="vOJv6ga_SLZkR0OG2dL8-101" value="" style="sketch=0;points=[[0,0,0],[0.25,0,0],[0.5,0,0],[0.75,0,0],[1,0,0],[0,1,0],[0.25,1,0],[0.5,1,0],[0.75,1,0],[1,1,0],[0,0.25,0],[0,0.5,0],[0,0.75,0],[1,0.25,0],[1,0.5,0],[1,0.75,0]];outlineConnect=0;fontColor=#232F3E;fillColor=#ED7100;strokeColor=#ffffff;dashed=0;verticalLabelPosition=bottom;verticalAlign=top;align=center;html=1;fontSize=12;fontStyle=0;aspect=fixed;shape=mxgraph.aws4.resourceIcon;resIcon=mxgraph.aws4.compute;" parent="1" vertex="1">
          <mxGeometry x="472" y="402" width="38" height="38" as="geometry" />
        </mxCell>
        <mxCell id="vOJv6ga_SLZkR0OG2dL8-102" value="&lt;font color=&quot;#ffffff&quot;&gt;&lt;span style=&quot;text-wrap: nowrap;&quot;&gt;Node-3&lt;/span&gt;&lt;br style=&quot;forced-color-adjust: none; font-family: Helvetica; font-size: 12px; font-style: normal; font-variant-ligatures: normal; font-variant-caps: normal; letter-spacing: normal; orphans: 2; text-align: left; text-indent: 0px; text-transform: none; widows: 2; word-spacing: 0px; -webkit-text-stroke-width: 0px; white-space: nowrap; text-decoration-thickness: initial; text-decoration-style: initial; text-decoration-color: initial;&quot;&gt;&lt;span style=&quot;font-family: Helvetica; font-size: 12px; font-style: normal; font-variant-ligatures: normal; font-variant-caps: normal; letter-spacing: normal; orphans: 2; text-align: left; text-indent: 0px; text-transform: none; widows: 2; word-spacing: 0px; -webkit-text-stroke-width: 0px; white-space: nowrap; text-decoration-thickness: initial; text-decoration-style: initial; text-decoration-color: initial; float: none; display: inline !important;&quot;&gt;Compute Engine&lt;/span&gt;&lt;/font&gt;" style="text;whiteSpace=wrap;html=1;fontStyle=1" parent="1" vertex="1">
          <mxGeometry x="825" y="396" width="120" height="50" as="geometry" />
        </mxCell>
        <mxCell id="vOJv6ga_SLZkR0OG2dL8-103" value="" style="sketch=0;points=[[0,0,0],[0.25,0,0],[0.5,0,0],[0.75,0,0],[1,0,0],[0,1,0],[0.25,1,0],[0.5,1,0],[0.75,1,0],[1,1,0],[0,0.25,0],[0,0.5,0],[0,0.75,0],[1,0.25,0],[1,0.5,0],[1,0.75,0]];outlineConnect=0;fontColor=#232F3E;fillColor=#ED7100;strokeColor=#ffffff;dashed=0;verticalLabelPosition=bottom;verticalAlign=top;align=center;html=1;fontSize=12;fontStyle=0;aspect=fixed;shape=mxgraph.aws4.resourceIcon;resIcon=mxgraph.aws4.compute;" parent="1" vertex="1">
          <mxGeometry x="775" y="400" width="38" height="38" as="geometry" />
        </mxCell>
        <mxCell id="vOJv6ga_SLZkR0OG2dL8-108" value="cilium" style="text;html=1;align=center;verticalAlign=middle;resizable=0;points=[];autosize=1;fillColor=none;fontColor=#FFFFFF;" parent="1" vertex="1">
          <mxGeometry x="881.5" y="267" width="50" height="30" as="geometry" />
        </mxCell>
        <mxCell id="vOJv6ga_SLZkR0OG2dL8-77" value="" style="shape=flexArrow;endArrow=none;startArrow=none;html=1;rounded=0;startFill=0;endFill=0;fillColor=#00FFFF;gradientColor=none;fillStyle=auto;strokeColor=none;" parent="1" edge="1">
          <mxGeometry width="100" height="100" relative="1" as="geometry">
            <mxPoint x="577.1175603805808" y="160" as="sourcePoint" />
            <mxPoint x="575.88" y="80" as="targetPoint" />
          </mxGeometry>
        </mxCell>
        <mxCell id="vOJv6ga_SLZkR0OG2dL8-78" value="" style="shape=flexArrow;endArrow=none;startArrow=none;html=1;rounded=0;startFill=0;endFill=0;strokeColor=none;fillColor=#00CC00;" parent="1" edge="1">
          <mxGeometry width="100" height="100" relative="1" as="geometry">
            <mxPoint x="587.1180483044647" y="160" as="sourcePoint" />
            <mxPoint x="585.8804879238838" y="80" as="targetPoint" />
          </mxGeometry>
        </mxCell>
        <mxCell id="vOJv6ga_SLZkR0OG2dL8-79" value="" style="shape=flexArrow;endArrow=none;startArrow=none;html=1;rounded=0;startFill=0;endFill=0;strokeColor=none;fillColor=#FFFF00;" parent="1" edge="1">
          <mxGeometry width="100" height="100" relative="1" as="geometry">
            <mxPoint x="597.1185362283485" y="160" as="sourcePoint" />
            <mxPoint x="595.8809758477677" y="80" as="targetPoint" />
          </mxGeometry>
        </mxCell>
        <mxCell id="vOJv6ga_SLZkR0OG2dL8-80" value="" style="shape=flexArrow;endArrow=none;startArrow=none;html=1;rounded=0;startFill=0;endFill=0;strokeColor=none;fillColor=#FF66FF;" parent="1" edge="1">
          <mxGeometry width="100" height="100" relative="1" as="geometry">
            <mxPoint x="607.1190241522323" y="160" as="sourcePoint" />
            <mxPoint x="605.8814637716515" y="80" as="targetPoint" />
          </mxGeometry>
        </mxCell>
        <mxCell id="vOJv6ga_SLZkR0OG2dL8-81" value="" style="shape=flexArrow;endArrow=none;startArrow=none;html=1;rounded=0;startFill=0;endFill=0;fillColor=#9999FF;strokeColor=none;" parent="1" edge="1">
          <mxGeometry width="100" height="100" relative="1" as="geometry">
            <mxPoint x="617.1195120761162" y="160" as="sourcePoint" />
            <mxPoint x="615.8819516955353" y="80" as="targetPoint" />
          </mxGeometry>
        </mxCell>
        <mxCell id="vOJv6ga_SLZkR0OG2dL8-82" value="" style="shape=flexArrow;endArrow=none;startArrow=none;html=1;rounded=0;startFill=0;endFill=0;fillColor=#FF8000;strokeColor=none;" parent="1" edge="1">
          <mxGeometry width="100" height="100" relative="1" as="geometry">
            <mxPoint x="627.12" y="160" as="sourcePoint" />
            <mxPoint x="625.8824396194192" y="80" as="targetPoint" />
          </mxGeometry>
        </mxCell>
        <mxCell id="j39mi7xemLGqWOHImlby-3" value="" style="shape=flexArrow;endArrow=none;startArrow=none;html=1;rounded=0;startFill=0;endFill=0;fillColor=#9999FF;strokeColor=none;exitX=0.475;exitY=0.41;exitDx=0;exitDy=0;exitPerimeter=0;" parent="1" source="vOJv6ga_SLZkR0OG2dL8-104" edge="1">
          <mxGeometry width="100" height="100" relative="1" as="geometry">
            <mxPoint x="509.00195169553535" y="198" as="sourcePoint" />
            <mxPoint x="577.0019516955354" y="155" as="targetPoint" />
          </mxGeometry>
        </mxCell>
        <mxCell id="j39mi7xemLGqWOHImlby-4" value="" style="shape=flexArrow;endArrow=none;startArrow=none;html=1;rounded=0;startFill=0;endFill=0;fillColor=#FF8000;strokeColor=none;exitX=0.516;exitY=0.557;exitDx=0;exitDy=0;exitPerimeter=0;" parent="1" edge="1">
          <mxGeometry width="100" height="100" relative="1" as="geometry">
            <mxPoint x="299.66672000000005" y="257.99" as="sourcePoint" />
            <mxPoint x="580" y="162" as="targetPoint" />
          </mxGeometry>
        </mxCell>
        <mxCell id="j39mi7xemLGqWOHImlby-6" value="" style="shape=flexArrow;endArrow=none;startArrow=none;html=1;rounded=0;startFill=0;endFill=0;strokeColor=none;fillColor=#FFFF00;" parent="1" edge="1">
          <mxGeometry width="100" height="100" relative="1" as="geometry">
            <mxPoint x="597.6185362283485" y="267" as="sourcePoint" />
            <mxPoint x="596.3809758477677" y="187" as="targetPoint" />
          </mxGeometry>
        </mxCell>
        <mxCell id="j39mi7xemLGqWOHImlby-7" value="" style="shape=flexArrow;endArrow=none;startArrow=none;html=1;rounded=0;startFill=0;endFill=0;strokeColor=none;fillColor=#FF66FF;" parent="1" edge="1">
          <mxGeometry width="100" height="100" relative="1" as="geometry">
            <mxPoint x="607.6190241522323" y="267" as="sourcePoint" />
            <mxPoint x="606.3814637716515" y="187" as="targetPoint" />
          </mxGeometry>
        </mxCell>
        <mxCell id="j39mi7xemLGqWOHImlby-8" value="" style="shape=flexArrow;endArrow=none;startArrow=none;html=1;rounded=0;startFill=0;endFill=0;fillColor=#00FFFF;gradientColor=none;fillStyle=auto;strokeColor=none;exitX=0.556;exitY=0.544;exitDx=0;exitDy=0;exitPerimeter=0;" parent="1" edge="1">
          <mxGeometry width="100" height="100" relative="1" as="geometry">
            <mxPoint x="910.54352" y="261.08" as="sourcePoint" />
            <mxPoint x="630" y="163" as="targetPoint" />
          </mxGeometry>
        </mxCell>
        <mxCell id="j39mi7xemLGqWOHImlby-9" value="" style="shape=flexArrow;endArrow=none;startArrow=none;html=1;rounded=0;startFill=0;endFill=0;strokeColor=none;fillColor=#00CC00;exitX=0.569;exitY=0.429;exitDx=0;exitDy=0;exitPerimeter=0;" parent="1" edge="1">
          <mxGeometry width="100" height="100" relative="1" as="geometry">
            <mxPoint x="911.4914800000001" y="253.02999999999997" as="sourcePoint" />
            <mxPoint x="630.0004879238838" y="153" as="targetPoint" />
          </mxGeometry>
        </mxCell>
        <mxCell id="vOJv6ga_SLZkR0OG2dL8-83" value="" style="sketch=0;points=[[0.5,0,0],[1,0.5,0],[0.5,1,0],[0,0.5,0],[0.145,0.145,0],[0.8555,0.145,0],[0.855,0.8555,0],[0.145,0.855,0]];verticalLabelPosition=bottom;html=1;verticalAlign=top;aspect=fixed;align=center;pointerEvents=1;shape=mxgraph.cisco19.rect;prIcon=router;fillColor=#FAFAFA;strokeColor=#005073;" parent="1" vertex="1">
          <mxGeometry x="562" y="118" width="80" height="80" as="geometry" />
        </mxCell>
        <mxCell id="j39mi7xemLGqWOHImlby-12" value="" style="shape=flexArrow;endArrow=none;startArrow=none;html=1;rounded=0;startFill=0;endFill=0;strokeColor=none;fillColor=#FFFF00;exitX=0.394;exitY=0.574;exitDx=0;exitDy=0;exitPerimeter=0;entryX=0.495;entryY=0.437;entryDx=0;entryDy=0;entryPerimeter=0;" parent="1" edge="1" target="vOJv6ga_SLZkR0OG2dL8-98">
          <mxGeometry width="100" height="100" relative="1" as="geometry">
            <mxPoint x="550" y="355.552" as="sourcePoint" />
            <mxPoint x="789.8009758477676" y="260" as="targetPoint" />
          </mxGeometry>
        </mxCell>
        <mxCell id="j39mi7xemLGqWOHImlby-13" value="" style="shape=flexArrow;endArrow=none;startArrow=none;html=1;rounded=0;startFill=0;endFill=0;strokeColor=none;fillColor=#FF66FF;exitX=0.496;exitY=0.638;exitDx=0;exitDy=0;exitPerimeter=0;" parent="1" source="vOJv6ga_SLZkR0OG2dL8-55" target="vOJv6ga_SLZkR0OG2dL8-98" edge="1">
          <mxGeometry width="100" height="100" relative="1" as="geometry">
            <mxPoint x="627.7390241522323" y="340" as="sourcePoint" />
            <mxPoint x="626.5014637716515" y="260" as="targetPoint" />
          </mxGeometry>
        </mxCell>
        <mxCell id="j39mi7xemLGqWOHImlby-14" value="" style="shape=flexArrow;endArrow=none;startArrow=none;html=1;rounded=0;startFill=0;endFill=0;fillColor=#00FFFF;gradientColor=none;fillStyle=auto;strokeColor=none;entryX=0.554;entryY=0.61;entryDx=0;entryDy=0;entryPerimeter=0;exitX=0.57;exitY=0.541;exitDx=0;exitDy=0;exitPerimeter=0;" parent="1" source="vOJv6ga_SLZkR0OG2dL8-105" target="vOJv6ga_SLZkR0OG2dL8-72" edge="1">
          <mxGeometry width="100" height="100" relative="1" as="geometry">
            <mxPoint x="1060" y="90" as="sourcePoint" />
            <mxPoint x="950" y="157.92000000000002" as="targetPoint" />
          </mxGeometry>
        </mxCell>
        <mxCell id="j39mi7xemLGqWOHImlby-15" value="" style="shape=flexArrow;endArrow=none;startArrow=none;html=1;rounded=0;startFill=0;endFill=0;strokeColor=none;fillColor=#00CC00;entryX=0.5;entryY=0.667;entryDx=0;entryDy=0;entryPerimeter=0;" parent="1" edge="1" target="vOJv6ga_SLZkR0OG2dL8-67">
          <mxGeometry width="100" height="100" relative="1" as="geometry">
            <mxPoint x="910" y="260" as="sourcePoint" />
            <mxPoint x="638.46" y="360.97269327029903" as="targetPoint" />
          </mxGeometry>
        </mxCell>
        <mxCell id="j39mi7xemLGqWOHImlby-16" value="" style="shape=flexArrow;endArrow=none;startArrow=none;html=1;rounded=0;startFill=0;endFill=0;fillColor=#9999FF;strokeColor=none;exitX=0.475;exitY=0.41;exitDx=0;exitDy=0;exitPerimeter=0;entryX=0.562;entryY=0.451;entryDx=0;entryDy=0;entryPerimeter=0;" parent="1" target="vOJv6ga_SLZkR0OG2dL8-104" edge="1">
          <mxGeometry width="100" height="100" relative="1" as="geometry">
            <mxPoint x="250" y="354" as="sourcePoint" />
            <mxPoint x="530.0019516955354" y="260" as="targetPoint" />
          </mxGeometry>
        </mxCell>
        <mxCell id="j39mi7xemLGqWOHImlby-17" value="" style="shape=flexArrow;endArrow=none;startArrow=none;html=1;rounded=0;startFill=0;endFill=0;fillColor=#FF8000;strokeColor=none;exitX=0.516;exitY=0.557;exitDx=0;exitDy=0;exitPerimeter=0;entryX=0.518;entryY=0.603;entryDx=0;entryDy=0;entryPerimeter=0;" parent="1" target="vOJv6ga_SLZkR0OG2dL8-64" edge="1">
          <mxGeometry width="100" height="100" relative="1" as="geometry">
            <mxPoint x="296.16672000000005" y="260" as="sourcePoint" />
            <mxPoint x="576.5" y="164.01" as="targetPoint" />
          </mxGeometry>
        </mxCell>
        <mxCell id="vOJv6ga_SLZkR0OG2dL8-105" value="" style="aspect=fixed;sketch=0;html=1;dashed=0;whitespace=wrap;verticalLabelPosition=bottom;verticalAlign=top;fillColor=#2875E2;strokeColor=#ffffff;points=[[0.005,0.63,0],[0.1,0.2,0],[0.9,0.2,0],[0.5,0,0],[0.995,0.63,0],[0.72,0.99,0],[0.5,1,0],[0.28,0.99,0]];shape=mxgraph.kubernetes.icon2;prIcon=k_proxy" parent="1" vertex="1">
          <mxGeometry x="869.9999999999999" y="220" width="72.92" height="70" as="geometry" />
        </mxCell>
        <mxCell id="vOJv6ga_SLZkR0OG2dL8-98" value="" style="aspect=fixed;sketch=0;html=1;dashed=0;whitespace=wrap;verticalLabelPosition=bottom;verticalAlign=top;fillColor=#2875E2;strokeColor=#ffffff;points=[[0.005,0.63,0],[0.1,0.2,0],[0.9,0.2,0],[0.5,0,0],[0.995,0.63,0],[0.72,0.99,0],[0.5,1,0],[0.28,0.99,0]];shape=mxgraph.kubernetes.icon2;prIcon=k_proxy" parent="1" vertex="1">
          <mxGeometry x="565.54" y="220" width="72.92" height="70" as="geometry" />
        </mxCell>
        <mxCell id="vOJv6ga_SLZkR0OG2dL8-104" value="" style="aspect=fixed;sketch=0;html=1;dashed=0;whitespace=wrap;verticalLabelPosition=bottom;verticalAlign=top;fillColor=#2875E2;strokeColor=#ffffff;points=[[0.005,0.63,0],[0.1,0.2,0],[0.9,0.2,0],[0.5,0,0],[0.995,0.63,0],[0.72,0.99,0],[0.5,1,0],[0.28,0.99,0]];shape=mxgraph.kubernetes.icon2;prIcon=k_proxy" parent="1" vertex="1">
          <mxGeometry x="262.04" y="220" width="72.92" height="70" as="geometry" />
        </mxCell>
        <mxCell id="vOJv6ga_SLZkR0OG2dL8-106" value="cilium" style="text;html=1;align=center;verticalAlign=middle;resizable=0;points=[];autosize=1;fillColor=none;fontColor=#FFFFFF;" parent="1" vertex="1">
          <mxGeometry x="273.5" y="267" width="50" height="30" as="geometry" />
        </mxCell>
        <mxCell id="vOJv6ga_SLZkR0OG2dL8-107" value="cilium" style="text;html=1;align=center;verticalAlign=middle;resizable=0;points=[];autosize=1;fillColor=none;fontColor=#FFFFFF;" parent="1" vertex="1">
          <mxGeometry x="576.5" y="267" width="50" height="30" as="geometry" />
        </mxCell>
        <mxCell id="j39mi7xemLGqWOHImlby-11" value="cilium" style="text;html=1;align=center;verticalAlign=middle;resizable=0;points=[];autosize=1;fillColor=none;fontColor=#FFFFFF;" parent="1" vertex="1">
          <mxGeometry x="881.46" y="267" width="50" height="30" as="geometry" />
        </mxCell>
        <mxCell id="vOJv6ga_SLZkR0OG2dL8-59" value="" style="aspect=fixed;sketch=0;html=1;dashed=0;whitespace=wrap;verticalLabelPosition=bottom;verticalAlign=top;fillColor=#2875E2;strokeColor=#ffffff;points=[[0.005,0.63,0],[0.1,0.2,0],[0.9,0.2,0],[0.5,0,0],[0.995,0.63,0],[0.72,0.99,0],[0.5,1,0],[0.28,0.99,0]];shape=mxgraph.kubernetes.icon2;kubernetesLabel=1;prIcon=pod" parent="1" vertex="1">
          <mxGeometry x="227" y="328" width="50" height="48" as="geometry" />
        </mxCell>
        <mxCell id="vOJv6ga_SLZkR0OG2dL8-64" value="" style="aspect=fixed;sketch=0;html=1;dashed=0;whitespace=wrap;verticalLabelPosition=bottom;verticalAlign=top;fillColor=#2875E2;strokeColor=#ffffff;points=[[0.005,0.63,0],[0.1,0.2,0],[0.9,0.2,0],[0.5,0,0],[0.995,0.63,0],[0.72,0.99,0],[0.5,1,0],[0.28,0.99,0]];shape=mxgraph.kubernetes.icon2;kubernetesLabel=1;prIcon=pod" parent="1" vertex="1">
          <mxGeometry x="317" y="328" width="50" height="48" as="geometry" />
        </mxCell>
        <mxCell id="vOJv6ga_SLZkR0OG2dL8-67" value="" style="aspect=fixed;sketch=0;html=1;dashed=0;whitespace=wrap;verticalLabelPosition=bottom;verticalAlign=top;fillColor=#2875E2;strokeColor=#ffffff;points=[[0.005,0.63,0],[0.1,0.2,0],[0.9,0.2,0],[0.5,0,0],[0.995,0.63,0],[0.72,0.99,0],[0.5,1,0],[0.28,0.99,0]];shape=mxgraph.kubernetes.icon2;kubernetesLabel=1;prIcon=pod" parent="1" vertex="1">
          <mxGeometry x="835" y="328" width="50" height="48" as="geometry" />
        </mxCell>
        <mxCell id="vOJv6ga_SLZkR0OG2dL8-72" value="" style="aspect=fixed;sketch=0;html=1;dashed=0;whitespace=wrap;verticalLabelPosition=bottom;verticalAlign=top;fillColor=#2875E2;strokeColor=#ffffff;points=[[0.005,0.63,0],[0.1,0.2,0],[0.9,0.2,0],[0.5,0,0],[0.995,0.63,0],[0.72,0.99,0],[0.5,1,0],[0.28,0.99,0]];shape=mxgraph.kubernetes.icon2;kubernetesLabel=1;prIcon=pod" parent="1" vertex="1">
          <mxGeometry x="925" y="328" width="50" height="48" as="geometry" />
        </mxCell>
        <mxCell id="vOJv6ga_SLZkR0OG2dL8-21" value="" style="aspect=fixed;sketch=0;html=1;dashed=0;whitespace=wrap;verticalLabelPosition=bottom;verticalAlign=top;fillColor=#2875E2;strokeColor=#ffffff;points=[[0.005,0.63,0],[0.1,0.2,0],[0.9,0.2,0],[0.5,0,0],[0.995,0.63,0],[0.72,0.99,0],[0.5,1,0],[0.28,0.99,0]];shape=mxgraph.kubernetes.icon2;kubernetesLabel=1;prIcon=pod" parent="1" vertex="1">
          <mxGeometry x="530" y="328" width="50" height="48" as="geometry" />
        </mxCell>
        <mxCell id="vOJv6ga_SLZkR0OG2dL8-55" value="" style="aspect=fixed;sketch=0;html=1;dashed=0;whitespace=wrap;verticalLabelPosition=bottom;verticalAlign=top;fillColor=#2875E2;strokeColor=#ffffff;points=[[0.005,0.63,0],[0.1,0.2,0],[0.9,0.2,0],[0.5,0,0],[0.995,0.63,0],[0.72,0.99,0],[0.5,1,0],[0.28,0.99,0]];shape=mxgraph.kubernetes.icon2;kubernetesLabel=1;prIcon=pod" parent="1" vertex="1">
          <mxGeometry x="620" y="328" width="50" height="48" as="geometry" />
        </mxCell>
      </root>
    </mxGraphModel>
  </diagram>
</mxfile>
